# ProBuilder 4.2.3
# https://unity3d.com/unity/features/worldbuilding/probuilder
# 20-3-2020 19:22:52

mtllib ./triangle2.mtl
o triangle2

g Cube
v 6.922428 -0.5 7.056524
v -6.922426 -0.5 3.737895
v 6.922428 0.5 7.056524
v -6.922426 0.5 3.737895
v 0.3956375 -0.5 -2.157607
v 0.3956375 0.5 -2.157607
v 6.922428 -0.5 -7.056523
v 6.922428 0.5 -7.056523

vt 8.3766 -0.5
vt -5.860439 -0.5
vt 8.3766 0.5
vt -5.860439 0.5
vt 7.735712 -0.5
vt -1.661682 -0.5
vt 7.735712 0.5
vt -1.661682 0.5
vt -1.611632 -0.5
vt -9.772414 -0.5
vt -1.611632 0.5
vt -9.772414 0.5
vt 7.056523 -0.5
vt -7.056524 -0.5
vt 7.056523 0.5
vt -7.056524 0.5
vt -6.922428 7.056524
vt 6.922426 3.737895
vt -6.922428 -7.056523
vt -0.3956375 -2.157607
vt 6.922428 -7.056523
vt 0.3956375 -2.157607
vt 6.922428 7.056524
vt -6.922426 3.737895

vn -0.2330982 0 0.9724532
vn -0.627355 0 -0.7787334
vn -0.6002998 0 -0.7997751
vn 1 0 0
vn 0 1 0
vn 0 -1 0

usemtl ProBuilderDefault
f 3/3/1 4/4/1 2/2/1 1/1/1
f 4/7/2 6/8/2 5/6/2 2/5/2
f 6/11/3 8/12/3 7/10/3 5/9/3
f 8/15/4 3/16/4 1/14/4 7/13/4
f 8/19/5 6/20/5 4/18/5 3/17/5
f 1/23/6 2/24/6 5/22/6 7/21/6

