# ProBuilder 4.2.3
# https://unity3d.com/unity/features/worldbuilding/probuilder
# 20-3-2020 19:08:57

mtllib ./Cube2.mtl
o Cube2

g Cube
v 10.5896 -0.5 3.91744
v -10.5896 -0.5 3.91744
v 10.5896 0.5 3.91744
v -10.5896 0.5 3.91744
v -2.775495 -0.5 -3.91744
v -2.775495 0.5 -3.91744
v 10.5896 -0.5 -3.85551
v 10.5896 0.5 -3.85551

vt 10.5896 -0.5
vt -10.5896 -0.5
vt 10.5896 0.5
vt -10.5896 0.5
vt 10.25175 -0.5
vt -0.8137605 -0.5
vt 10.25175 0.5
vt -0.8137605 0.5
vt 2.793617 -0.5
vt -10.57162 -0.5
vt 2.793617 0.5
vt -10.57162 0.5
vt 3.85551 -0.5
vt -3.91744 -0.5
vt 3.85551 0.5
vt -3.91744 0.5
vt -10.5896 3.91744
vt 10.5896 3.91744
vt -10.5896 -3.85551
vt 2.775495 -3.91744
vt 10.5896 -3.85551
vt -2.775495 -3.91744

vn 0 0 1
vn -0.708045 0 -0.7061673
vn 0.004633713 0 -0.9999893
vn 1 0 0
vn 0 1 0
vn 0 -1 0

usemtl ProBuilderDefault
f 3/3/1 4/4/1 2/2/1 1/1/1
f 4/7/2 6/8/2 5/6/2 2/5/2
f 6/11/3 8/12/3 7/10/3 5/9/3
f 8/15/4 3/16/4 1/14/4 7/13/4
f 8/19/5 6/20/5 4/18/5 3/17/5
f 1/18/6 2/17/6 5/22/6 7/21/6

