# ProBuilder 4.2.3
# https://unity3d.com/unity/features/worldbuilding/probuilder
# 20-3-2020 19:01:11

mtllib ./Cylinder.mtl
o Cylinder

g Cylinder
v -7.689228 -0.5 -0.1112614
v -7.689228 0.5 -0.1112614
v -4.535418 -0.5 4.543924
v -4.535418 0.5 4.543924
v -1.66898 -0.5 8.731754
v -1.66898 0.5 8.731754
v 3.419466 -0.5 6.977774
v 3.419466 0.5 6.977774
v 7.683476 -0.5 5.602663
v 7.683476 0.5 5.602663
v 7.67012 -0.5 -0.1065483
v 7.67012 0.5 -0.1065483
v 7.689226 -0.5 -5.348617
v 7.689226 0.5 -5.348617
v 3.621775 -0.5 -6.729097
v 3.621775 0.5 -6.729097
v -1.724583 -0.5 -8.731755
v -1.724583 0.5 -8.731755
v -4.735003 -0.5 -4.347707
v -4.735003 0.5 -4.347707
v 1.699184 -0.5 0.1112576
v 1.699184 0.5 0.1112576

vt -4.404881 -0.5
vt -4.404881 0.5
vt 1.218043 -0.5
vt 1.218043 0.5
vt 1.187948 -0.5
vt 1.187948 0.5
vt 6.262826 -0.5
vt 6.262826 0.5
vt -4.42339 -0.5
vt -4.42339 0.5
vt 0.9588699 -0.5
vt 0.9588699 0.5
vt 1.112754 -0.5
vt 1.112754 0.5
vt 5.593013 -0.5
vt 5.593013 0.5
vt -5.620623 -0.5
vt -5.620623 0.5
vt 0.08860448 -0.5
vt 0.08860448 0.5
vt 0.1345029 -0.5
vt 0.1345029 0.5
vt 5.376606 -0.5
vt 5.376606 0.5
vt -5.56229 -0.5
vt -5.56229 0.5
vt -1.266957 -0.5
vt -1.266957 0.5
vt -1.031194 -0.5
vt -1.031194 0.5
vt 4.677937 -0.5
vt 4.677937 0.5
vt -6.221871 -0.5
vt -6.221871 0.5
vt -0.9037409 -0.5
vt -0.9037409 0.5
vt -0.8578407 -0.5
vt -0.8578407 0.5
vt 4.306936 -0.5
vt 4.306936 0.5
vt -7.689228 -0.1112614
vt 1.699184 0.1112576
vt -4.535418 4.543924
vt 7.689228 -0.1112614
vt -1.699184 0.1112576
vt 4.535418 4.543924
vt -1.66898 8.731754
vt 1.66898 8.731754
vt 3.419466 6.977774
vt -3.419466 6.977774
vt 7.683476 5.602663
vt -7.683476 5.602663
vt 7.67012 -0.1065483
vt -7.67012 -0.1065483
vt 7.689226 -5.348617
vt -7.689226 -5.348617
vt 3.621775 -6.729097
vt -3.621775 -6.729097
vt -1.724583 -8.731755
vt 1.724583 -8.731755
vt -4.735003 -4.347707
vt 4.735003 -4.347707

vn -0.8278942 0 0.5608844
vn -0.8252081 0 0.5648289
vn 0.3258818 0 0.9454105
vn 0.3069267 0 0.9517332
vn 0.9999973 0 -0.002339408
vn 0.9999934 0 0.003644703
vn 0.3213908 0 -0.9469466
vn 0.3507816 0 -0.9364573
vn -0.824359 0 -0.5660673
vn -0.8202572 0 -0.5719948
vn 0 -1 0
vn 0 1 0

usemtl ProBuilderDefault
f 1/41/11 21/42/11 3/43/11
f 3/43/11 21/42/11 5/47/11
f 5/47/11 21/42/11 7/49/11
f 7/49/11 21/42/11 9/51/11
f 9/51/11 21/42/11 11/53/11
f 11/53/11 21/42/11 13/55/11
f 13/55/11 21/42/11 15/57/11
f 15/57/11 21/42/11 17/59/11
f 17/59/11 21/42/11 19/61/11
f 19/61/11 21/42/11 1/41/11
f 4/46/12 22/45/12 2/44/12
f 6/48/12 22/45/12 4/46/12
f 8/50/12 22/45/12 6/48/12
f 10/52/12 22/45/12 8/50/12
f 12/54/12 22/45/12 10/52/12
f 14/56/12 22/45/12 12/54/12
f 16/58/12 22/45/12 14/56/12
f 18/60/12 22/45/12 16/58/12
f 20/62/12 22/45/12 18/60/12
f 2/44/12 22/45/12 20/62/12
f 4/4/1 2/2/1 1/1/1
f 1/1/1 3/3/1 4/4/1
f 6/8/2 4/6/2 3/5/2
f 3/5/2 5/7/2 6/8/2
f 8/12/3 6/10/3 5/9/3
f 5/9/3 7/11/3 8/12/3
f 10/16/4 8/14/4 7/13/4
f 7/13/4 9/15/4 10/16/4
f 12/20/5 10/18/5 9/17/5
f 9/17/5 11/19/5 12/20/5
f 14/24/6 12/22/6 11/21/6
f 11/21/6 13/23/6 14/24/6
f 16/28/7 14/26/7 13/25/7
f 13/25/7 15/27/7 16/28/7
f 18/32/8 16/30/8 15/29/8
f 15/29/8 17/31/8 18/32/8
f 20/36/9 18/34/9 17/33/9
f 17/33/9 19/35/9 20/36/9
f 2/40/10 20/38/10 19/37/10
f 19/37/10 1/39/10 2/40/10

